<svg width="64" height="64" viewBox="0 0 64 64"xmlns="http://www.w3.org/2000/svg">
<path d="M11.7464 21.4452L0 33.1094V37.8221V42.5315H11.7397H23.4795L23.4861 48.3669L23.4961 54.2056L29.3593 54.2155L35.2192 54.2222V43.6575V33.0928H23.4895H11.7564L19.4606 25.4326C23.6996 21.2233 28.9725 15.9774 31.1837 13.7751L35.2025 9.77773H29.3493H23.4961L11.7464 21.4452Z"/>
<path d="M40.2886 15.5968V21.4189L43.3269 18.4052C44.9945 16.746 47.6259 14.1297 49.1668 12.583L51.9683 9.77794H46.1284H40.2886V15.5968Z"/>
<path d="M51.995 15.6165V21.4519L46.1418 27.2641L40.2886 33.0764V38.9118V44.7505H46.1418H51.995V38.9283V33.1062L57.8815 27.2641L63.768 21.4221V15.6V9.77781H57.8815H51.995V15.6165Z"/>
<path d="M57.8748 38.9183C54.6598 42.1043 52.0283 44.7173 52.0283 44.7305C52.0283 44.7405 54.6664 44.7471 57.8915 44.7438L63.7514 44.7338L63.7614 38.9282C63.7647 35.739 63.7581 33.1259 63.7447 33.1293C63.728 33.1293 61.0866 35.7357 57.8748 38.9183Z"/>
</svg>
