<svg width="25" height="25" viewBox="0 0 25 25" fill="none" xmlns="http://www.w3.org/2000/svg">
<path d="M4.92092 8.49959L0.5 12.9205V14.7067V16.4916H4.91841H9.33682L9.33933 18.7034L9.3431 20.9163L11.5498 20.9201L13.7552 20.9226V16.9184V12.9142H9.34059H4.92469L7.82427 10.0109C9.41967 8.41549 11.4042 6.42721 12.2364 5.59248L13.749 4.07742H11.546H9.3431L4.92092 8.49959Z" fill="white"/>
<path d="M15.6632 6.28287V8.48956L16.8067 7.3473C17.4343 6.71843 18.4247 5.7268 19.0046 5.14061L20.059 4.07743H17.8611H15.6632V6.28287Z" fill="white"/>
<path d="M20.0691 6.29038V8.5021L17.8661 10.705L15.6632 12.908V15.1197V17.3326H17.8661H20.0691V15.1259V12.9193L22.2845 10.705L24.5 8.4908V6.28411V4.07741H22.2845H20.0691V6.29038Z" fill="white"/>
<path d="M22.282 15.1222C21.0719 16.3297 20.0815 17.3201 20.0815 17.3251C20.0815 17.3289 21.0744 17.3314 22.2882 17.3301L24.4937 17.3264L24.4974 15.1259C24.4987 13.9171 24.4962 12.9268 24.4912 12.928C24.4849 12.928 23.4907 13.9159 22.282 15.1222Z" fill="white"/>
</svg>
