<svg width="24" height="24" viewBox="0 0 24 24" fill="none" xmlns="http://www.w3.org/2000/svg">
<path d="M2.45401 7.93967C2.7353 7.65846 3.11676 7.50049 3.51451 7.50049C3.91226 7.50049 4.29372 7.65846 4.57501 7.93967L12 15.3647L19.425 7.93967C19.7079 7.66643 20.0868 7.51524 20.4801 7.51866C20.8734 7.52207 21.2496 7.67983 21.5277 7.95794C21.8059 8.23605 21.9636 8.61227 21.967 9.00557C21.9704 9.39886 21.8192 9.77776 21.546 10.0607L13.0605 18.5462C12.7792 18.8274 12.3978 18.9853 12 18.9853C11.6023 18.9853 11.2208 18.8274 10.9395 18.5462L2.45401 10.0607C2.1728 9.77938 2.01483 9.39791 2.01483 9.00017C2.01483 8.60242 2.1728 8.22096 2.45401 7.93967Z" fill="white" stroke="white" stroke-width="2"/>
</svg>
