<svg width="24" height="24" viewBox="0 0 24 24" fill="none" xmlns="http://www.w3.org/2000/svg">
<path d="M2.43918 17.0457C2.72047 17.3269 3.10193 17.4849 3.49968 17.4849C3.89743 17.4849 4.27889 17.3269 4.56018 17.0457L11.9852 9.62068L19.4102 17.0457C19.6931 17.3189 20.072 17.4701 20.4653 17.4667C20.8586 17.4633 21.2348 17.3055 21.5129 17.0274C21.791 16.7493 21.9488 16.3731 21.9522 15.9798C21.9556 15.5865 21.8044 15.2076 21.5312 14.9247L13.0457 6.43918C12.7644 6.15797 12.3829 6 11.9852 6C11.5874 6 11.206 6.15797 10.9247 6.43918L2.43918 14.9247C2.15797 15.206 2 15.5874 2 15.9852C2 16.3829 2.15797 16.7644 2.43918 17.0457Z" fill="white" stroke="white" stroke-width="2"/>
</svg>
